<svg width="189" height="68" viewBox="0 0 189 68" fill="none" xmlns="http://www.w3.org/2000/svg">
<path d="M0.5 66C0.5 66.8284 1.17157 67.5 2 67.5H15.5C16.3284 67.5 17 66.8284 17 66C17 65.1716 16.3284 64.5 15.5 64.5H3.5V52.5C3.5 51.6716 2.82843 51 2 51C1.17157 51 0.5 51.6716 0.5 52.5L0.5 66ZM67.5 2C67.5 1.17158 66.8284 0.500002 66 0.500002H52.5C51.6716 0.500002 51 1.17158 51 2C51 2.82843 51.6716 3.5 52.5 3.5L64.5 3.5L64.5 15.5C64.5 16.3284 65.1716 17 66 17C66.8284 17 67.5 16.3284 67.5 15.5V2ZM3.06066 67.0607L67.0607 3.06066L64.9393 0.939342L0.93934 64.9393L3.06066 67.0607Z" fill="black"/>
<path d="M4.12131 0.5C3.29288 0.5 2.62131 1.17157 2.62131 2L2.62131 15.5C2.62131 16.3284 3.29288 17 4.12131 17C4.94973 17 5.62131 16.3284 5.62131 15.5L5.62131 3.5L17.6213 3.5C18.4497 3.5 19.1213 2.82843 19.1213 2C19.1213 1.17157 18.4497 0.5 17.6213 0.5L4.12131 0.5ZM68.1213 67.5C68.9497 67.5 69.6213 66.8284 69.6213 66L69.6213 52.5C69.6213 51.6716 68.9497 51 68.1213 51C67.2929 51 66.6213 51.6716 66.6213 52.5L66.6213 64.5L54.6213 64.5C53.7929 64.5 53.1213 65.1716 53.1213 66C53.1213 66.8284 53.7929 67.5 54.6213 67.5L68.1213 67.5ZM3.06065 3.06066L67.0606 67.0607L69.182 64.9393L5.18197 0.93934L3.06065 3.06066Z" fill="black"/>
<path d="M35.0607 34.5C35.8891 34.5 36.5607 33.8284 36.5607 33C36.5607 32.1716 35.8891 31.5 35.0607 31.5L35.0607 34.5ZM8.00001 31.9393C7.41422 32.5251 7.41422 33.4749 8.00001 34.0607L17.5459 43.6066C18.1317 44.1924 19.0815 44.1924 19.6673 43.6066C20.2531 43.0208 20.2531 42.0711 19.6673 41.4853L11.182 33L19.6673 24.5147C20.2531 23.9289 20.2531 22.9792 19.6673 22.3934C19.0815 21.8076 18.1317 21.8076 17.546 22.3934L8.00001 31.9393ZM35.0607 31.5L9.06067 31.5L9.06067 34.5L35.0607 34.5L35.0607 31.5Z" fill="black"/>
<path d="M33.5607 33C33.5607 33.8284 34.2322 34.5 35.0607 34.5C35.8891 34.5 36.5607 33.8284 36.5607 33L33.5607 33ZM36.1213 5.93934C35.5355 5.35355 34.5858 5.35355 34 5.93934L24.4541 15.4853C23.8683 16.0711 23.8683 17.0208 24.4541 17.6066C25.0399 18.1924 25.9896 18.1924 26.5754 17.6066L35.0607 9.12132L43.5459 17.6066C44.1317 18.1924 45.0815 18.1924 45.6673 17.6066C46.2531 17.0208 46.2531 16.0711 45.6673 15.4853L36.1213 5.93934ZM36.5607 33L36.5607 7L33.5607 7L33.5607 33L36.5607 33Z" fill="black"/>
<path d="M36.5607 33C36.5607 32.1716 35.8891 31.5 35.0607 31.5C34.2322 31.5 33.5607 32.1716 33.5607 33L36.5607 33ZM34 60.0607C34.5858 60.6464 35.5355 60.6464 36.1213 60.0607L45.6673 50.5147C46.2531 49.9289 46.2531 48.9792 45.6673 48.3934C45.0815 47.8076 44.1317 47.8076 43.546 48.3934L35.0607 56.8787L26.5754 48.3934C25.9896 47.8076 25.0399 47.8076 24.4541 48.3934C23.8683 48.9792 23.8683 49.9289 24.4541 50.5147L34 60.0607ZM33.5607 33L33.5607 59L36.5607 59L36.5607 33L33.5607 33Z" fill="black"/>
<path d="M35.0607 31.5C34.2322 31.5 33.5607 32.1716 33.5607 33C33.5607 33.8284 34.2322 34.5 35.0607 34.5L35.0607 31.5ZM62.1213 34.0607C62.7071 33.4749 62.7071 32.5251 62.1213 31.9393L52.5754 22.3934C51.9896 21.8076 51.0399 21.8076 50.4541 22.3934C49.8683 22.9792 49.8683 23.9289 50.4541 24.5147L58.9393 33L50.4541 41.4853C49.8683 42.0711 49.8683 43.0208 50.4541 43.6066C51.0399 44.1924 51.9896 44.1924 52.5754 43.6066L62.1213 34.0607ZM35.0607 34.5L61.0607 34.5L61.0607 31.5L35.0607 31.5L35.0607 34.5Z" fill="black"/>
<path d="M84.5909 44.4091C83.4848 44.4091 82.4811 44.2008 81.5795 43.7841C80.678 43.3598 79.9621 42.75 79.4318 41.9545C78.9015 41.1515 78.6364 40.1818 78.6364 39.0455C78.6364 38.0455 78.8333 37.2348 79.2273 36.6136C79.6212 35.9848 80.1477 35.4924 80.8068 35.1364C81.4659 34.7803 82.1932 34.5152 82.9886 34.3409C83.7917 34.1591 84.5985 34.0152 85.4091 33.9091C86.4697 33.7727 87.3295 33.6705 87.9886 33.6023C88.6553 33.5265 89.1402 33.4015 89.4432 33.2273C89.7538 33.053 89.9091 32.75 89.9091 32.3182V32.2273C89.9091 31.1061 89.6023 30.2348 88.9886 29.6136C88.3826 28.9924 87.4621 28.6818 86.2273 28.6818C84.947 28.6818 83.9432 28.9621 83.2159 29.5227C82.4886 30.0833 81.9773 30.6818 81.6818 31.3182L79.1364 30.4091C79.5909 29.3485 80.197 28.5227 80.9545 27.9318C81.7197 27.3333 82.553 26.9167 83.4545 26.6818C84.3636 26.4394 85.2576 26.3182 86.1364 26.3182C86.697 26.3182 87.3409 26.3864 88.0682 26.5227C88.803 26.6515 89.5114 26.9205 90.1932 27.3295C90.8826 27.7386 91.4545 28.3561 91.9091 29.1818C92.3636 30.0076 92.5909 31.1136 92.5909 32.5V44H89.9091V41.6364H89.7727C89.5909 42.0152 89.2879 42.4205 88.8636 42.8523C88.4394 43.2841 87.875 43.6515 87.1705 43.9545C86.4659 44.2576 85.6061 44.4091 84.5909 44.4091ZM85 42C86.0606 42 86.9545 41.7917 87.6818 41.375C88.4167 40.9583 88.9697 40.4205 89.3409 39.7614C89.7197 39.1023 89.9091 38.4091 89.9091 37.6818V35.2273C89.7955 35.3636 89.5455 35.4886 89.1591 35.6023C88.7803 35.7083 88.3409 35.803 87.8409 35.8864C87.3485 35.9621 86.8674 36.0303 86.3977 36.0909C85.9356 36.1439 85.5606 36.1894 85.2727 36.2273C84.5758 36.3182 83.9242 36.4659 83.3182 36.6705C82.7197 36.8674 82.2348 37.1667 81.8636 37.5682C81.5 37.9621 81.3182 38.5 81.3182 39.1818C81.3182 40.1136 81.6629 40.8182 82.3523 41.2955C83.0492 41.7652 83.9318 42 85 42ZM97.4858 44V26.5455H100.077V29.1818H100.259C100.577 28.3182 101.152 27.6174 101.986 27.0795C102.819 26.5417 103.759 26.2727 104.804 26.2727C105.001 26.2727 105.247 26.2765 105.543 26.2841C105.838 26.2917 106.062 26.303 106.213 26.3182V29.0455C106.122 29.0227 105.914 28.9886 105.588 28.9432C105.27 28.8902 104.933 28.8636 104.577 28.8636C103.728 28.8636 102.971 29.0417 102.304 29.3977C101.645 29.7462 101.122 30.2311 100.736 30.8523C100.357 31.4659 100.168 32.1667 100.168 32.9545V44H97.4858ZM109.756 44V20.7273H112.438V29.3182H112.665C112.862 29.0152 113.134 28.6288 113.483 28.1591C113.839 27.6818 114.347 27.2576 115.006 26.8864C115.672 26.5076 116.574 26.3182 117.71 26.3182C119.18 26.3182 120.475 26.6856 121.597 27.4205C122.718 28.1553 123.593 29.197 124.222 30.5455C124.85 31.8939 125.165 33.4848 125.165 35.3182C125.165 37.1667 124.85 38.7689 124.222 40.125C123.593 41.4735 122.722 42.5189 121.608 43.2614C120.494 43.9962 119.21 44.3636 117.756 44.3636C116.634 44.3636 115.737 44.178 115.062 43.8068C114.388 43.428 113.869 43 113.506 42.5227C113.142 42.0379 112.862 41.6364 112.665 41.3182H112.347V44H109.756ZM112.392 35.2727C112.392 36.5909 112.585 37.7538 112.972 38.7614C113.358 39.7614 113.922 40.5455 114.665 41.1136C115.407 41.6742 116.316 41.9545 117.392 41.9545C118.513 41.9545 119.449 41.6591 120.199 41.0682C120.956 40.4697 121.525 39.6667 121.903 38.6591C122.29 37.6439 122.483 36.5152 122.483 35.2727C122.483 34.0455 122.294 32.9394 121.915 31.9545C121.544 30.9621 120.979 30.178 120.222 29.6023C119.472 29.0189 118.528 28.7273 117.392 28.7273C116.301 28.7273 115.384 29.0038 114.642 29.5568C113.9 30.1023 113.339 30.8674 112.96 31.8523C112.581 32.8295 112.392 33.9697 112.392 35.2727ZM134.403 44.4091C133.297 44.4091 132.294 44.2008 131.392 43.7841C130.491 43.3598 129.775 42.75 129.244 41.9545C128.714 41.1515 128.449 40.1818 128.449 39.0455C128.449 38.0455 128.646 37.2348 129.04 36.6136C129.434 35.9848 129.96 35.4924 130.619 35.1364C131.278 34.7803 132.006 34.5152 132.801 34.3409C133.604 34.1591 134.411 34.0152 135.222 33.9091C136.282 33.7727 137.142 33.6705 137.801 33.6023C138.468 33.5265 138.953 33.4015 139.256 33.2273C139.566 33.053 139.722 32.75 139.722 32.3182V32.2273C139.722 31.1061 139.415 30.2348 138.801 29.6136C138.195 28.9924 137.275 28.6818 136.04 28.6818C134.759 28.6818 133.756 28.9621 133.028 29.5227C132.301 30.0833 131.79 30.6818 131.494 31.3182L128.949 30.4091C129.403 29.3485 130.009 28.5227 130.767 27.9318C131.532 27.3333 132.366 26.9167 133.267 26.6818C134.176 26.4394 135.07 26.3182 135.949 26.3182C136.509 26.3182 137.153 26.3864 137.881 26.5227C138.616 26.6515 139.324 26.9205 140.006 27.3295C140.695 27.7386 141.267 28.3561 141.722 29.1818C142.176 30.0076 142.403 31.1136 142.403 32.5V44H139.722V41.6364H139.585C139.403 42.0152 139.1 42.4205 138.676 42.8523C138.252 43.2841 137.688 43.6515 136.983 43.9545C136.278 44.2576 135.419 44.4091 134.403 44.4091ZM134.812 42C135.873 42 136.767 41.7917 137.494 41.375C138.229 40.9583 138.782 40.4205 139.153 39.7614C139.532 39.1023 139.722 38.4091 139.722 37.6818V35.2273C139.608 35.3636 139.358 35.4886 138.972 35.6023C138.593 35.7083 138.153 35.803 137.653 35.8864C137.161 35.9621 136.68 36.0303 136.21 36.0909C135.748 36.1439 135.373 36.1894 135.085 36.2273C134.388 36.3182 133.737 36.4659 133.131 36.6705C132.532 36.8674 132.047 37.1667 131.676 37.5682C131.313 37.9621 131.131 38.5 131.131 39.1818C131.131 40.1136 131.475 40.8182 132.165 41.2955C132.862 41.7652 133.744 42 134.812 42ZM149.98 20.7273V44H147.298V20.7273H149.98ZM154.892 44V26.5455H157.574V44H154.892ZM156.256 23.6364C155.733 23.6364 155.282 23.4583 154.903 23.1023C154.532 22.7462 154.347 22.3182 154.347 21.8182C154.347 21.3182 154.532 20.8902 154.903 20.5341C155.282 20.178 155.733 20 156.256 20C156.778 20 157.225 20.178 157.597 20.5341C157.975 20.8902 158.165 21.3182 158.165 21.8182C158.165 22.3182 157.975 22.7462 157.597 23.1023C157.225 23.4583 156.778 23.6364 156.256 23.6364ZM174.849 30.4545L172.44 31.1364C172.289 30.7348 172.065 30.3447 171.77 29.9659C171.482 29.5795 171.088 29.2614 170.588 29.0114C170.088 28.7614 169.448 28.6364 168.668 28.6364C167.599 28.6364 166.709 28.8826 165.997 29.375C165.293 29.8598 164.94 30.4773 164.94 31.2273C164.94 31.8939 165.183 32.4205 165.668 32.8068C166.152 33.1932 166.91 33.5152 167.94 33.7727L170.531 34.4091C172.092 34.7879 173.255 35.3674 174.02 36.1477C174.785 36.9205 175.168 37.9167 175.168 39.1364C175.168 40.1364 174.88 41.0303 174.304 41.8182C173.736 42.6061 172.94 43.2273 171.918 43.6818C170.895 44.1364 169.705 44.3636 168.349 44.3636C166.569 44.3636 165.096 43.9773 163.929 43.2045C162.762 42.4318 162.024 41.303 161.713 39.8182L164.259 39.1818C164.501 40.1212 164.959 40.8258 165.634 41.2955C166.315 41.7652 167.205 42 168.304 42C169.554 42 170.546 41.7348 171.281 41.2045C172.024 40.6667 172.395 40.0227 172.395 39.2727C172.395 38.6667 172.183 38.1591 171.759 37.75C171.334 37.3333 170.683 37.0227 169.804 36.8182L166.895 36.1364C165.296 35.7576 164.122 35.1705 163.372 34.375C162.63 33.572 162.259 32.5682 162.259 31.3636C162.259 30.3788 162.535 29.5076 163.088 28.75C163.649 27.9924 164.41 27.3977 165.372 26.9659C166.342 26.5341 167.44 26.3182 168.668 26.3182C170.395 26.3182 171.751 26.697 172.736 27.4545C173.728 28.2121 174.433 29.2121 174.849 30.4545ZM186.795 26.5455V28.8182H177.75V26.5455H186.795ZM180.386 22.3636H183.068V39C183.068 39.7576 183.178 40.3258 183.398 40.7045C183.625 41.0758 183.913 41.3258 184.261 41.4545C184.617 41.5758 184.992 41.6364 185.386 41.6364C185.682 41.6364 185.924 41.6212 186.114 41.5909C186.303 41.553 186.455 41.5227 186.568 41.5L187.114 43.9091C186.932 43.9773 186.678 44.0455 186.352 44.1136C186.027 44.1894 185.614 44.2273 185.114 44.2273C184.356 44.2273 183.614 44.0644 182.886 43.7386C182.167 43.4129 181.568 42.9167 181.091 42.25C180.621 41.5833 180.386 40.7424 180.386 39.7273V22.3636Z" fill="black"/>
</svg>
